# xmcd
#
# Track frame offsets: 
#        150
#        14669
#        37586
#        55907
#        73887
#        88244
#        106615
#        120873
#        146919
#        156432
#
# Disc length: 2328 seconds
#
# Revision: 0
# Processed by: cddbd v1.5.2PL0 Copyright (c) Steve Scherf et al.
# Submitted via: ExactAudioCopy v1.0b3
#
DISCID=8309160a
DTITLE=Jake Xerxes Fussell - Jake Xerxes Fussell
DYEAR=2015
DGENRE=
TTITLE0=All in Down and Out
TTITLE1=Let Me Lose
TTITLE2=Star Girl
TTITLE3=Raggy Levy
TTITLE4=Rabbit on a Log
TTITLE5=Boat's Up the River
TTITLE6=Man at the Mill
TTITLE7=Push Boat
TTITLE8=Georgia Buck
TTITLE9=Pork and Beans
EXTD=
EXTT0=
EXTT1=
EXTT2=
EXTT3=
EXTT4=
EXTT5=
EXTT6=
EXTT7=
EXTT8=
EXTT9=
PLAYORDER=
